<?xml version="1.0" encoding="utf-8"?>
<!-- Generator: Adobe Illustrator 24.0.2, SVG Export Plug-In . SVG Version: 6.00 Build 0)  -->
<svg version="1.1" id="Layer_1" xmlns="http://www.w3.org/2000/svg" xmlns:xlink="http://www.w3.org/1999/xlink" x="0px" y="0px"
	 viewBox="0 0 841.9 623.6" style="enable-background:new 0 0 841.9 623.6;" xml:space="preserve">
<style type="text/css">
	.st0{fill:#FFFFFF;stroke:#53B3CB;stroke-width:3;stroke-linecap:round;stroke-linejoin:round;stroke-miterlimit:10;}
	.st1{fill:#FFFFFF;stroke:#53B3CB;stroke-width:3;stroke-miterlimit:10;}
	.st2{fill:#FFFFFF;stroke:#53B3CB;stroke-miterlimit:10;}
	.st3{fill:none;stroke:#53B3CB;stroke-width:3;stroke-linecap:round;stroke-linejoin:round;stroke-miterlimit:10;}
</style>
<g id="bg">
</g>
<g id="graphics">
	<g>
		<g>
			<g>
				<path class="st0" d="M256.5,467.8c0,6-4.8,10.8-10.8,10.8h-91.1c-6,0-10.8-4.8-10.8-10.8V343c0-6,4.8-10.8,10.8-10.8h91.1
					c6,0,10.8,4.8,10.8,10.8V467.8z"/>
				<rect x="155" y="346.3" class="st1" width="90.3" height="113.9"/>
				<path class="st2" d="M202.7,339.6c0,1.4-1.2,2.6-2.6,2.6c-1.4,0-2.6-1.2-2.6-2.6c0-1.4,1.2-2.6,2.6-2.6
					C201.6,337,202.7,338.2,202.7,339.6z"/>
				<path class="st0" d="M204.5,469.7c0,2.4-2,4.4-4.4,4.4s-4.4-2-4.4-4.4s2-4.4,4.4-4.4S204.5,467.3,204.5,469.7z"/>
			</g>
			<g>
				<rect x="161.1" y="365" class="st2" width="71.2" height="36.2"/>
				<rect x="161.1" y="352.4" class="st2" width="32.4" height="7.8"/>
				<g>
					<rect x="161.1" y="406" class="st2" width="33.1" height="24.3"/>
					<rect x="161.1" y="435.2" class="st2" width="33.1" height="2.8"/>
					<rect x="161.1" y="452.1" class="st2" width="33.1" height="2.8"/>
					<rect x="161.1" y="440.9" class="st2" width="25.3" height="2.8"/>
					<rect x="161.1" y="446.5" class="st2" width="29.1" height="2.8"/>
				</g>
				<g>
					<rect x="199.1" y="406" class="st2" width="33.1" height="24.3"/>
					<rect x="199.1" y="435.2" class="st2" width="33.1" height="2.8"/>
					<rect x="199.1" y="452.1" class="st2" width="33.1" height="2.8"/>
					<rect x="199.1" y="440.9" class="st2" width="25.3" height="2.8"/>
					<rect x="199.1" y="446.5" class="st2" width="29.1" height="2.8"/>
				</g>
			</g>
		</g>
		<g>
			<g>
				<path class="st0" d="M576.7,469.7c0,5-4,9-9,9h-42.9c-5,0-9.1-4-9.1-9v-79.5c0-5,4-9,9.1-9h42.9c5,0,9,4,9,9V469.7z"/>
				<rect x="522.4" y="392.9" class="st1" width="47.5" height="70.4"/>
				<path class="st2" d="M548.3,387.3c0,1.2-1,2.2-2.2,2.2s-2.2-1-2.2-2.2c0-1.2,1-2.2,2.2-2.2C547.3,385.1,548.3,386.1,548.3,387.3
					z"/>
				<path class="st0" d="M549.8,471.3c0,2-1.7,3.7-3.7,3.7s-3.7-1.6-3.7-3.7s1.7-3.7,3.7-3.7C548.2,467.6,549.8,469.3,549.8,471.3z"
					/>
				<g>
					<rect x="526.4" y="408.8" class="st2" width="38.9" height="37.5"/>
					<rect x="526.4" y="396.8" class="st2" width="38.7" height="8"/>
					<g>
						<rect x="526.4" y="449.5" class="st2" width="38.7" height="12.6"/>
					</g>
				</g>
			</g>
		</g>
		<g>
			<g>
				<g>
					<g>
						<g>
							<g>
								<g>
									<path class="st1" d="M238.4,293.8c0-7.3,5.9-13.3,13.3-13.3h251c7.3,0,13.3,5.9,13.3,13.3V451H238.4V293.8z"/>
									<g>
										<rect x="256.3" y="300.6" class="st2" width="245" height="142.2"/>
										<path class="st2" d="M500,301.9v139.7H257.5V301.9H500 M502.5,299.3H500H257.5H255v2.5v139.7v2.5h2.5H500h2.5v-2.5V301.9
											L502.5,299.3L502.5,299.3z"/>
									</g>
								</g>
							</g>
						</g>
					</g>
				</g>
			</g>
			<g>
				<path class="st0" d="M219.4,451v5.7c0,16,12.9,22,28.9,22h257.6c16,0,28.9-6.1,28.9-22V451H219.4z"/>
			</g>
			<g>
				<g>
					<g>
						<rect x="297.2" y="312.9" class="st2" width="163.8" height="120.7"/>
					</g>
					<g>
						<g>
							<rect x="297.2" y="309.8" class="st2" width="163.8" height="15.7"/>
						</g>
						<g>
							<path class="st2" d="M451.9,319.9c0,0.8-0.7,1.5-1.5,1.5H345.8c-0.8,0-1.5-0.7-1.5-1.5v-4.4c0-0.8,0.7-1.5,1.5-1.5h104.5
								c0.8,0,1.5,0.7,1.5,1.5V319.9z"/>
							<g>
								<path class="st2" d="M336.9,317.7c0,1.8-1.5,3.3-3.3,3.3c-1.8,0-3.3-1.5-3.3-3.3c0-1.8,1.5-3.3,3.3-3.3
									C335.4,314.4,336.9,315.9,336.9,317.7z"/>
								<path class="st2" d="M324.9,317.7c0,1.8-1.5,3.3-3.3,3.3c-1.8,0-3.3-1.5-3.3-3.3c0-1.8,1.5-3.3,3.3-3.3
									C323.4,314.4,324.9,315.9,324.9,317.7z"/>
								<path class="st2" d="M312.9,317.7c0,1.8-1.5,3.3-3.3,3.3s-3.3-1.5-3.3-3.3c0-1.8,1.5-3.3,3.3-3.3
									C311.4,314.4,312.9,315.9,312.9,317.7z"/>
							</g>
						</g>
					</g>
					<g>
						<rect x="305.2" y="345" class="st2" width="147.8" height="31.2"/>
						<rect x="305.2" y="330.9" class="st2" width="42" height="8.7"/>
						<g>
							<rect x="305.2" y="381.5" class="st2" width="42" height="26.6"/>
							<rect x="305.2" y="413.5" class="st2" width="41.9" height="3.1"/>
							<rect x="305.2" y="419.3" class="st2" width="33.4" height="3.1"/>
							<rect x="358.2" y="413.5" class="st2" width="41.9" height="3.1"/>
							<rect x="358.2" y="419.3" class="st2" width="33.4" height="3.1"/>
							<rect x="411.1" y="413.5" class="st2" width="41.9" height="3.1"/>
							<rect x="411.1" y="419.3" class="st2" width="33.4" height="3.1"/>
							<rect x="305.2" y="425.1" class="st2" width="33.4" height="3.1"/>
							<rect x="358.2" y="425.1" class="st2" width="33.4" height="3.1"/>
							<rect x="411.1" y="425.1" class="st2" width="33.4" height="3.1"/>
						</g>
						<g>
							<rect x="358.2" y="381.5" class="st2" width="41.9" height="26.6"/>
						</g>
						<g>
							<rect x="411.1" y="381.5" class="st2" width="41.9" height="26.6"/>
						</g>
					</g>
				</g>
			</g>
		</g>
		<line class="st3" x1="679.6" y1="478.8" x2="91.6" y2="478.8"/>
		<g>
			<path class="st1" d="M144.4,419.1h-22.3c-1.3,0-2.4,1.1-2.4,2.4v7.8h-8.8c-5.4,0-9.8,4.4-9.8,9.9v21.5c0,5.4,4.4,9.9,9.8,9.9h8.8
				v8.4h24.7h24.9v-57.3c0-1.3-1.1-2.4-2.4-2.4L144.4,419.1L144.4,419.1z M119.7,464.1h-8.8c-2,0-3.6-1.6-3.6-3.5v-21.5
				c0-2,1.6-3.5,3.6-3.5h8.8V464.1z"/>
		</g>
		<g>
			<g>
				<path class="st1" d="M657,478.4c0,0,25.6-51.4,6.7-105.6c-20.2-58-68.6-57.1-68.6-57.1"/>
				<path class="st2" d="M557.1,361.4c0,6.8,5.5,12.3,12.3,12.3s12.3-5.5,12.3-12.3s-5.5-12.3-12.3-12.3
					C562.6,349.1,557.1,354.6,557.1,361.4z"/>
				<path class="st1" d="M565.8,323l5.8-19.2c2.4-7.8,10.6-12.2,18.4-9.8s12.2,10.6,9.8,18.4l-5.5,17.9c8.4,9.6,11.8,25.6,8.3,42.5
					l-65.3-19.9C543.7,338,554.4,327,565.8,323z"/>
			</g>
			<path class="st1" d="M581.9,478.8c-0.1-0.3-0.1-0.6-0.1-0.9c0-7.5,17.7-14.4,39.6-14.4c21.9,0,39.6,6.9,39.6,14.4
				c0,0.3,0,0.6-0.1,0.9H581.9z"/>
		</g>
	</g>
</g>
<g id="txt">
</g>
</svg>
